<?xml version="1.0" encoding="utf-8"?>
<!-- Generator: Adobe Illustrator 19.0.0, SVG Export Plug-In . SVG Version: 6.00 Build 0)  -->
<svg version="1.1" id="Capa_1" xmlns="http://www.w3.org/2000/svg" xmlns:xlink="http://www.w3.org/1999/xlink" x="0px" y="0px"
	 viewBox="0 0 359.7 110.7" style="enable-background:new 0 0 359.7 110.7;" xml:space="preserve">
<style type="text/css">
	.st0{fill:#FFFFFF;}
</style>
<g id="XMLID_2_">
	<g id="XMLID_48_">
		<path id="XMLID_50_" class="st0" d="M115.4,54.6c1-0.3,2.1-0.6,3.2-0.8c-3.3-9-6.3-15.7-8.1-19.4c2.2,0.2,5.8,0.8,10.1,1.9
			c7.1,1.9,18,5.9,29.2,14.4l1.8,1.4l0.7-2.2c7-21.2,22-35.3,26-38.8c4,3.4,18.7,17,26,38.8L205,52l1.8-1.4
			c16.7-12.6,33-15.6,39.3-16.3c-1.8,3.7-4.9,10.4-8.1,19.4l3.1,0c0.1,0,0.3,0,0.4,0c4.6-12.7,8.8-20.3,8.8-20.5l1.3-2.4l-2.8,0
			c-0.2,0-5.5,0-13.6,2.2c-7,1.8-17.6,5.7-28.6,13.6c-8.9-24.5-26.6-38.5-27.4-39.1l-1-0.8l-1,0.8c-0.2,0.1-18.6,15-27.4,39.1
			c-11-7.9-21.6-11.8-28.6-13.6c-8.1-2.1-13.4-2.2-13.6-2.2l-2.8,0l1.3,2.4C106.4,33.5,110.7,41.4,115.4,54.6z"/>
		<path id="XMLID_49_" class="st0" d="M230.7,92.9c-0.6,0.2-1.2,0.3-1.9,0.3c0,0,0,0,0,0l-1.1,0c-0.4,2.5-0.8,5-1.1,7.6H130
			c-0.4-3.3-0.9-6.4-1.4-9.6c-1,0.5-2,0.9-3.1,1.3c0.6,3.3,1,6.6,1.5,10.1l0.2,1.4h102.4l0.2-1.4c0.4-3.3,0.9-6.5,1.4-9.6
			C231,93,230.8,93,230.7,92.9z"/>
	</g>
	<g id="XMLID_3_">
		<g id="XMLID_10_">
			<g id="XMLID_34_">
				<g id="XMLID_46_">
					<path id="XMLID_47_" class="st0" d="M106.9,63l0.2,0.6c1.8-0.9,3.6-3,3.6-4.9c0-0.7-0.2-1.3-0.7-1.7c-0.4-0.4-1-0.7-1.6-0.7h0
						c-1.5,0-2.5,0.9-2.5,2.3c0,1.1,0.6,1.9,1.6,2.2l0.1,0l0,0.1C108,61.7,107.5,62.3,106.9,63"/>
				</g>
				<g id="XMLID_44_">
					<path id="XMLID_45_" class="st0" d="M130.9,78.2c0-1.7-0.8-3.2-2.1-4.6c-0.8-0.8-1.7-1.6-2.9-2.3l0,0c-1.2-0.7-2.4-1.2-3.4-1.7
						c-1.6-0.7-2.8-1.3-3.5-2.1c-0.7-0.8-1-1.7-1-2.7c0.1-2.3,2-3.9,4.8-3.9h0c2.4,0,4.2,1.3,4.9,3.5l1.7,0.1
						c0.1-0.8,0.3-3.3,0.4-4.2c0,0,0,0-0.1,0c0-0.3,0-0.5,0.1-0.7c-3.2-0.6-4.9-0.8-6.7-0.8h0c-7.5,0-12.3,3.3-12.3,8.6
						c0,0.1,0,0.1,0,0.2c0,0,0,0.1,0,0.1c0,2.5,1.1,4.2,3.3,5.7c0.9,0.7,2.1,1.4,3.4,2.1l0.3,0.1c3.1,1.6,5.4,2.8,5.5,5.7
						c-0.1,2.7-2.5,4.8-5.6,4.8h0c-3.1,0-5.1-1.4-5.9-4.1l-1.8-0.2c0,0.1,0,0.3,0,0.5l0,0c0,1.1,0.1,4.3,0.2,5.1
						c2.4,0.5,3.9,0.6,6.7,0.6h0c4.3,0,7.9-0.9,10.4-2.7c2.3-1.7,3.5-4.1,3.6-7c0,0,0-0.1,0-0.1C130.9,78.3,130.9,78.2,130.9,78.2z"
						/>
				</g>
				<g id="XMLID_39_">
					<g id="XMLID_42_">
						<path id="XMLID_43_" class="st0" d="M77.2,88.2l0-1.3c-1.2-0.5-1.9-1.5-2.1-3.2c0-6.7,0-18.3,0-18.3c0-1.1,0.1-2,0.3-2.6
							c0.2-0.6,0.6-1.1,1.2-1.5c0.1-0.1,0.2-0.1,0.4-0.2l0-1.3l-6.6,0v0l-1.1,0l0,1.2c1.4,0.6,2.1,2,2.1,4.3l0,10h0l0,0.4l-10-11.5
							c0,0-3-4.4-8.5-4.4c-2.3,0-3,0-3,0v0c-0.7,0-1.1,0-1.1,0l0,1.3c1.4,0.6,2.1,1.9,2.1,4l0,17c0,1.2-0.1,2.1-0.3,2.7
							c-0.2,0.6-0.6,1.1-1.2,1.5c-0.2,0.1-0.4,0.2-0.6,0.3l0,1.1l6.7,0v0l1.1,0l0-1.2c-0.3-0.1-0.6-0.3-0.8-0.5
							c-0.7-0.6-1.1-1.9-1.1-4l0-14.2c1.1,1.2,8.9,10.4,12.7,14.7c3.6,4.1,4.6,5.3,6.6,5.6c0,0,0,0,0.1,0c1.7,0,2,0,2,0v0
							C76.9,88.2,77.2,88.2,77.2,88.2z"/>
					</g>
					<g id="XMLID_40_">
						<path id="XMLID_41_" class="st0" d="M75.9,88.2L75.9,88.2C75.9,88.2,75.9,88.2,75.9,88.2z"/>
					</g>
				</g>
				<g id="XMLID_37_">
					<path id="XMLID_38_" class="st0" d="M98.5,74.9L98.5,74.9h-0.8l0,1.4c0.8,0.4,1.2,1.2,1.2,2.2l0,2.4c0,1.9-0.5,3.2-1.5,3.9
						c-0.9,0.6-2,0.9-3.3,0.9c-1.5-0.1-2.8-0.4-3.8-1.2c-1.1-0.9-1.8-2.1-2.1-3.6c-0.4-1.6-0.5-4.6-0.5-7.6c0-5.9,2.2-11.9,7.7-12.1
						c3.9,0.2,5,2.1,6.2,4.5l1.7,0l0,0l0.8,0l0.5-4.1c0,0-2.8-2.1-8.9-2.1c-0.1,0-0.2,0-0.3,0c-0.2,0-0.3,0-0.5,0
						c-5.3,0-9.4,1.4-12.1,4.3c-2.7,2.9-4.1,6.4-4.1,10.4c0,3.8,1.3,7.1,3.8,9.9c2.6,2.8,5.9,4.3,10.1,4.3c0.1,0,0.3,0,0.4,0
						c0.1,0,0.2,0,0.3,0c1.5,0,3.4-0.2,5.7-0.7c2.9-0.6,4.3-1,5.5-1c0.2,0,0.4,0,0.6,0v0c0.2,0,0.4,0,0.8,0l0-7.2
						c0-1.4,0.2-2.3,0.5-2.7c0.2-0.2,0.4-0.4,0.7-0.5l0-1.3L98.5,74.9z"/>
				</g>
				<g id="XMLID_35_">
					<path id="XMLID_36_" class="st0" d="M45,61.7c0.2-0.2,0.5-0.4,0.9-0.5l0-1.4l-10.2,0l0,1.4c0.4,0.1,0.7,0.3,0.9,0.5
						c0.5,0.5,0.7,1.4,0.7,2.7l0,19.1c0,1.4-0.2,2.3-0.7,2.7c-0.2,0.2-0.5,0.4-1.1,0.4c-1.5,0-2.2-0.6-2.9-1.7l-9.9-15.6
						c0.8-0.9,1.6-1.7,2.3-2.5c3-3.4,5.4-6,7.6-6h0l0.4,0l0-1.2h-0.5c-0.5,0-1.3,0-2.2,0h0c-3,0-5.5,2.6-5.7,2.8
						c-1.1,1.1-5,5.1-8.6,8.3l-0.1-0.1c0-1,0-1.9,0-2.7c0-4.5,0-6.8,0.9-7l0.8-0.1l0-1.4l-0.2,0c-1.6,0-3.1,0.1-4.6,0
						c-1.5,0-3.1,0-4.6-0.1l-0.3,0l0,1.1l0,0.2l0.2,0c0.4,0,0.7,0.2,0.8,0.5C8.9,62.2,9,65.6,9,70.7c0,10.2-0.2,14.5-0.4,15.1
						c-0.1,0.2-0.3,0.4-0.8,0.5l-0.2,0v1.4l0.2,0c2.8,0,6,0,9.1,0l0.3,0l0-1.4l-1-0.2c-0.2,0-0.4-0.4-0.4-1.1v-0.4c0,0,0-0.1,0-0.3
						c0-0.5-0.1-1.8-0.1-3.9l0-5.9l1.3-1.1c3.4,4.3,6.2,8.6,8.3,12.8l-0.6,0.1v1.3h0.2c2.2,0,20.9,0,20.9,0l0-1.1
						c-0.4-0.1-0.7-0.3-0.8-0.5c-0.4-0.5-0.6-1.4-0.6-2.7l0-19.1C44.4,63.1,44.6,62.2,45,61.7z"/>
				</g>
			</g>
			<g id="XMLID_11_">
				<g id="XMLID_32_">
					<path id="XMLID_33_" class="st0" d="M344.9,83.9c0-6.7,0-18,0-18c0-1.1,0.1-2,0.3-2.6c0.2-0.6,0.6-1.1,1.3-1.5
						c0.1-0.1,0.3-0.1,0.4-0.2l0-1.3l-6.8,0l0,1.2c1.4,0.6,2.2,2,2.2,4.3l0,10.1h0l0,1.6L331,64.7c0,0-3-4.5-8.7-4.5c-2.3,0-3,0-3,0
						l0,1.4c1.5,0.6,2.2,1.9,2.2,4l0,17.1c0,1.2-0.1,2.1-0.3,2.7c-0.2,0.6-0.6,1.1-1.3,1.5c-0.2,0.1-0.4,0.2-0.7,0.3l0,1.1l6.8,0
						l0-1.2c-0.3-0.1-0.6-0.3-0.9-0.5c-0.8-0.6-1.1-1.9-1.1-4l0-14.4c0,0,9,10.1,13.2,14.8c3.7,4.1,4.7,5.1,6.7,5.4c0,0,0,0,0.1,0
						c2.3,0,3,0,3,0l0-1.4C345.8,86.6,345.1,85.6,344.9,83.9"/>
				</g>
				<g id="XMLID_30_">
					<path id="XMLID_31_" class="st0" d="M273,87c-0.4-0.1-0.7-0.3-0.9-0.5c-0.4-0.5-0.6-1.4-0.6-2.7l0-19.2c0-1.3,0.2-2.1,0.6-2.7
						c0.2-0.2,0.5-0.4,0.9-0.5l0-1.4l-10.5,0l0,1.4c0.4,0.1,0.7,0.3,0.9,0.5c0.5,0.5,0.7,1.4,0.7,2.7l0,19.2c0,1.4-0.2,2.3-0.7,2.8
						c-0.2,0.2-0.5,0.3-0.9,0.4l0,1.1l10.5,0L273,87z"/>
				</g>
				<g id="XMLID_28_">
					<path id="XMLID_29_" class="st0" d="M288.1,87c-0.4-0.1-0.7-0.3-0.9-0.5c-0.4-0.5-0.6-1.4-0.6-2.7l0-19.2
						c0-1.3,0.2-2.1,0.6-2.7c0.2-0.2,0.5-0.4,0.9-0.5l0-1.4l-10.5,0l0,1.4c0.4,0.1,0.7,0.3,0.9,0.5c0.5,0.5,0.7,1.4,0.7,2.7l0,19.2
						c0,1.4-0.2,2.3-0.7,2.8c-0.2,0.2-0.5,0.3-0.9,0.4l0,1.1l10.5,0L288.1,87z"/>
				</g>
				<g id="XMLID_24_">
					<path id="XMLID_25_" class="st0" d="M201.6,86.3c-0.7-0.4-1.5-1.7-2.3-3.9l-9.4-22.9l-2.4,0l-9,22.4c-0.9,2.3-2,4.1-3.3,4.8
						l0,1.3l6.6,0l0-1.3c-0.2-0.1-0.4-0.1-0.5-0.2c-0.5-0.3-0.7-0.7-0.7-1.4c0-0.4,0.2-2.3,0.6-3.2l0.4-1c1.8-0.5,5.3-1.2,8.9-0.1
						l1.2,3c0,0,1.2,4.3,7.4,4.3c3.2,0,3.6,0,3.6,0l0-1.2C202.4,86.7,202,86.5,201.6,86.3 M182.7,78.1l3.3-8.5l3.5,8.4
						C186.8,77.5,184.4,77.8,182.7,78.1"/>
				</g>
				<g id="XMLID_20_">
					<path id="XMLID_21_" class="st0" d="M260.2,86.4c-0.7-0.4-1.5-1.7-2.3-3.9l-9.4-22.9l-2.4,0l-9,22.4c-0.9,2.3-2,4.1-3.3,4.8
						l0,1.3l6.6,0l0-1.3c-0.2-0.1-0.4-0.1-0.5-0.2c-0.5-0.3-0.7-0.7-0.7-1.4c0-0.4,0.2-2.3,0.6-3.2l0.4-1c1.8-0.5,5.3-1.2,8.9-0.1
						l1.2,3c0,0,1.2,4.3,7.4,4.3c3.2,0,3.6,0,3.6,0l0-1.2C261,86.8,260.6,86.6,260.2,86.4 M241.3,78.3l3.3-8.5l3.5,8.4
						C245.4,77.7,243,77.9,241.3,78.3"/>
				</g>
				<g id="XMLID_16_">
					<path id="XMLID_17_" class="st0" d="M316.5,86.5c-0.7-0.4-1.5-1.7-2.3-3.9l-9.4-22.9l-2.4,0l-9,22.4c-0.9,2.3-2,4.1-3.3,4.8
						l0,1.3l6.6,0l0-1.3c-0.2-0.1-0.4-0.1-0.5-0.2c-0.5-0.3-0.7-0.7-0.7-1.4c0-0.4,0.2-2.3,0.6-3.2l0.4-1c1.8-0.5,5.3-1.2,8.9-0.1
						l1.2,3c0,0,1.2,4.3,7.4,4.3c3.2,0,3.6,0,3.6,0l0-1.2C317.3,86.9,316.9,86.8,316.5,86.5 M297.6,78.4l3.3-8.5l3.5,8.4
						C301.7,77.8,299.3,78,297.6,78.4"/>
				</g>
				<g id="XMLID_14_">
					<path id="XMLID_15_" class="st0" d="M233.5,59.2l0,1.3c0.2,0.1,0.4,0.1,0.5,0.2c0.5,0.3,0.7,0.7,0.7,1.4c0,0.4-0.2,2.3-0.6,3.2
						l-4.8,12.1l-7.6-18.3l-2.7,0l-7.2,18.3c0,0-3.4-11.2-4.2-14c-0.8-2.8-3.9-4.3-7.5-4.3c-1.8,0-3.5,0-3.5,0l0,1.2
						c0.4,0.1,0.8,0.3,1.2,0.5c0.7,0.4,1.5,1.7,2.3,3.9l7.8,22.9l2.4,0l7.5-18.6l7.6,18.7l2.4,0l9-22.4c0.9-2.3,2-4.1,3.3-4.8l0-1.3
						L233.5,59.2z"/>
				</g>
				<g id="XMLID_12_">
					<path id="XMLID_13_" class="st0" d="M172.7,61.5c0.2-0.2,0.5-0.4,0.9-0.5l0-1.4l-10.5,0l0,1.4c0.4,0.1,0.7,0.3,0.9,0.5
						c0.5,0.5,0.7,1.4,0.7,2.7l0,6.8l-10.8,0l0-6.8c0-1.3,0.2-2.1,0.6-2.7c0.2-0.2,0.5-0.4,0.9-0.5l0-1.4l-10.5,0l0,1.4
						c0.4,0.1,0.7,0.3,0.9,0.5c0.5,0.5,0.7,1.4,0.7,2.7l0,19.2c0,1.4-0.2,2.3-0.7,2.8c-0.2,0.2-0.5,0.3-0.9,0.4l0,1.1l10.5,0l0-1.1
						c-0.4-0.1-0.7-0.3-0.9-0.5c-0.4-0.5-0.6-1.4-0.6-2.7l0-9.9l10.8,0l0,9.9c0,1.4-0.2,2.3-0.7,2.8c-0.2,0.2-0.5,0.3-0.9,0.4l0,1.1
						l10.5,0l0-1.1c-0.4-0.1-0.7-0.3-0.9-0.5c-0.4-0.5-0.6-1.4-0.6-2.7l0-19.2C172.1,62.9,172.3,62,172.7,61.5z"/>
				</g>
			</g>
		</g>
		<g id="XMLID_4_">
			<path id="XMLID_5_" class="st0" d="M349.7,61.2c0.1-0.2,0.2-0.4,0.4-0.6c0.2-0.2,0.4-0.3,0.6-0.4c0.2-0.1,0.5-0.1,0.8-0.1
				s0.5,0,0.8,0.1c0.2,0.1,0.4,0.2,0.6,0.4c0.2,0.2,0.3,0.4,0.4,0.6s0.2,0.5,0.2,0.8c0,0.3-0.1,0.5-0.2,0.8
				c-0.1,0.2-0.2,0.4-0.4,0.6c-0.2,0.2-0.4,0.3-0.6,0.4c-0.2,0.1-0.5,0.1-0.8,0.1s-0.5,0-0.8-0.1c-0.2-0.1-0.4-0.2-0.6-0.4
				c-0.2-0.2-0.3-0.4-0.4-0.6c-0.1-0.2-0.2-0.5-0.2-0.8C349.5,61.7,349.6,61.5,349.7,61.2z M350,62.7c0.1,0.2,0.2,0.4,0.3,0.5
				c0.1,0.1,0.3,0.3,0.5,0.4c0.2,0.1,0.4,0.1,0.6,0.1c0.2,0,0.4,0,0.6-0.1c0.2-0.1,0.4-0.2,0.5-0.4c0.1-0.1,0.3-0.3,0.3-0.5
				s0.1-0.4,0.1-0.7c0-0.2,0-0.4-0.1-0.7s-0.2-0.4-0.3-0.5c-0.1-0.1-0.3-0.3-0.5-0.3c-0.2-0.1-0.4-0.1-0.6-0.1c-0.2,0-0.4,0-0.6,0.1
				c-0.2,0.1-0.4,0.2-0.5,0.3c-0.1,0.1-0.3,0.3-0.3,0.5c-0.1,0.2-0.1,0.4-0.1,0.7C349.9,62.3,349.9,62.5,350,62.7z M351.6,60.9
				c0.3,0,0.5,0.1,0.6,0.2c0.1,0.1,0.2,0.3,0.2,0.5c0,0.2-0.1,0.4-0.2,0.5c-0.1,0.1-0.3,0.2-0.4,0.2l0.7,1h-0.4l-0.6-1h-0.4v1h-0.4
				v-2.3H351.6z M351.5,61.9c0.1,0,0.2,0,0.2,0c0.1,0,0.1,0,0.2,0s0.1-0.1,0.1-0.1c0-0.1,0-0.1,0-0.2c0-0.1,0-0.1,0-0.2
				c0,0-0.1-0.1-0.1-0.1c0,0-0.1,0-0.2,0c-0.1,0-0.1,0-0.2,0h-0.5v0.7H351.5z"/>
		</g>
	</g>
</g>
</svg>
