<?xml version="1.0" encoding="utf-8"?>
<!-- Generator: Adobe Illustrator 19.0.0, SVG Export Plug-In . SVG Version: 6.00 Build 0)  -->
<svg version="1.1" id="Layer_1" xmlns="http://www.w3.org/2000/svg" xmlns:xlink="http://www.w3.org/1999/xlink" x="0px" y="0px"
	 viewBox="0 0 613.7 271" style="enable-background:new 0 0 613.7 271;" xml:space="preserve">
<style type="text/css">
	.st0{fill:#FC4113;}
	.st1{fill:none;}
	.st2{fill:#9E3223;}
	.st3{fill:#FFFFFF;}
	.st4{fill:#9E8959;}
</style>
<g>
	<path class="st0" d="M609.3,119.8c0,0-36.7-31.7-67.4-27.7c-18.4,2.4-33.4,8.8-44.9,16.2c-1.5-4.6-4.5-8.8-8.9-12.5
		c-9.5-8.1-24.2-12-30.4-9.9c-7.8,2.6-19.7,14.2-15.8,28.1c1.5,5.4,6.9,13.1,12.5,20.2c-7.2-2.1-14.8-2.9-20.6-0.2
		c-14,6.4-21.8,19.2-22,24.3c-0.1,1.9,0.7,5.4,2.6,9.2c1.8,3.7,4.5,7.6,8.1,10.7c0.5,0.4,0.9,0.7,1.4,1.1
		c-5.6,2.2-10.1,4.2-12.9,4.8c0,0,3.7,28.4,19.7,42.2c6.8,5.9,30.1,20.3,65.2,19.8c35-0.4,47.7-0.5,58,5.9c0,0-4.8-27.7-18.7-48.1
		c2.6,0.3,3.8,0,4.5-0.2c4.7-1.3,7-4.1,8.1-6.2c2.2-4.2,2.2-9.7-0.1-17c-2.1-6.7-4.9-11.1-8.2-14.3c6.8-3.6,14-8.2,21.1-14.2
		C587.5,129.4,597.3,121.4,609.3,119.8z"/>
	<path class="st0" d="M187.6,161.4c-0.2-9.2-1.9-23.3-9.5-33.3c-5.1-6.8-24.1-24.7-57.5-31.8c-33.4-7.1-45.5-9.7-53.8-17.7
		c0,0-2.8,45,18.6,65.3c0.7,0.7,1.4,1.3,2.1,1.9c-9.1,0.4-19,1.9-29.2,5.2c-28,9-45.1,50.8-45.1,50.8c11.1-0.8,22.8,1.4,49.2,7.8
		c-0.3,0.4-0.5,0.9-0.7,1.3c-0.8,2.1-0.8,4.3,0,6.2c-1.8,4,0.3,6.5,1.3,7.5c1.5,1.4,3.5,1.9,5.6,1.5c2.2,1.2,5,1.3,7.6,0
		c1.3-0.7,2.4-1.6,3.2-2.8c0.8-0.1,1.6-0.4,2.4-0.7c1.5-0.7,2.8-1.8,3.7-3.1c0.2-0.2,0.3-0.5,0.4-0.8c0.5-0.1,1.1-0.3,1.6-0.6
		c-0.3,2.5-0.2,5.1,0.6,7.5c1.1,3.5,3.4,6.3,6.6,7.9c2.8,1.4,5,1.4,6.7,1c0.1,0.1,0.2,0.2,0.3,0.3c2.5,2.8,6.7,7.5,12.9,7.4
		c0.8,0,1.7,0,2.7,0.1c4,0.3,11.1,0.8,15.4-6.7c1,0.9,2.1,1.7,3.2,2.3c0.3,0.4,0.7,0.9,0.9,1.3c2.6,3.6,5.9,8.1,10.6,9.2
		c1.2,0.3,2.4,0.4,3.7,0.4c2.7,0,5.5-0.6,8.1-1.6c3.3-1.3,7.7-4.1,10.9-9.7c2.9-1.1,6-3.2,8.1-8.8c2.8-7.4,4.8-15.9-4.6-25.4
		c3.6-0.4,6.8-1.9,9.6-4.3c8.7-7.6,15.2-21.4,10.6-30.5C192.4,165.8,190.3,163.4,187.6,161.4z"/>
</g>
<path class="st1" d="M467.1,171.2c-0.1,0.1-0.3,0.1-0.4,0.2c0.1,0,0.2,0,0.3,0C467.1,171.4,467.1,171.3,467.1,171.2z"/>
<g>
	<path class="st2" d="M609.3,119.8c0,0-36.7-31.7-67.4-27.7c-18.4,2.4-33.4,8.8-44.9,16.2c-1.5-4.6-4.5-8.8-8.9-12.5
		c-9.5-8.1-24.2-12-30.4-9.9c-7.8,2.6-19.7,14.2-15.8,28.1c1.5,5.4,6.9,13.1,12.5,20.2c-7.2-2.1-14.8-2.9-20.6-0.2
		c-14,6.4-21.8,19.2-22,24.3c-0.1,1.9,0.7,5.4,2.6,9.2c1.8,3.7,4.5,7.6,8.1,10.7c0.5,0.4,0.9,0.7,1.4,1.1
		c-5.6,2.2-10.1,4.2-12.9,4.8c0,0,3.7,28.4,19.7,42.2c6.8,5.9,30.1,20.3,65.2,19.8c35-0.4,47.7-0.5,58,5.9c0,0-4.8-27.7-18.7-48.1
		c2.6,0.3,3.8,0,4.5-0.2c4.7-1.3,7-4.1,8.1-6.2c2.2-4.2,2.2-9.7-0.1-17c-2.1-6.7-4.9-11.1-8.2-14.3c6.8-3.6,14-8.2,21.1-14.2
		C587.5,129.4,597.3,121.4,609.3,119.8z M563.2,99.4c-6.5,9-11.5,20.6-11.5,20.6c7.7-1.2,24.4-2.3,24.4-2.3c2-9.3,8-11.1,8-11.1
		c-3.5,2.8-5.1,11.2-5.1,11.2c8.6-1.1,19,1.8,19,1.8c-3.1,0.2-7.7,2.7-13.4,6.3c-5.7,3.6-20.4,13.5-20.4,13.5
		c-1.8-0.9-9.7-6-13.3-8.4c0.6-2.3,0.9-4.4,0.9-6.3c8.5-1.9,15.9-3.7,15.9-3.7s-7.2,0.3-16,1.5c-0.1-0.7-0.3-1.3-0.5-1.9
		c-0.5-1.3-1.2-2.5-1.9-3.5C553.4,107.3,563.2,99.4,563.2,99.4z M513,104.9c-1.9,4.6-3.5,9.9-4.6,14.5c-1.3,0.7-2.5,1.4-3.5,2.1
		C508.1,112.7,513,104.9,513,104.9z M498.8,126.1c-0.7,0.8-1.5,1.6-2.3,2.5c0.4-2.6,0.9-5.4,1.4-8.5c0.1-0.4,0.1-0.8,0.1-1.2
		c2.6-6.2,5.8-11.2,5.8-11.2C501.5,112.9,499.8,120.7,498.8,126.1z M439.1,184.2c6.2,1.9,18.5,5,18.5,5c1.1-1.4,2.6-2.8,4.2-4
		c-0.5,1.8-0.9,3.5-1.2,5.2c-0.5,0.5-0.8,0.7-0.8,0.7l0.6,0.2c-0.2,0.9-0.3,1.7-0.4,2.6c-13.1-5.4-34.5-11.3-34.5-11.3
		s0.8-0.3,2.5-0.9C431.3,183.3,435.1,184.2,439.1,184.2z M467.1,171.2c0,0.1-0.1,0.1-0.1,0.2c-0.1,0-0.2,0-0.3,0
		C466.9,171.4,467,171.3,467.1,171.2z M467.2,235.4c-6-1-11-4.9-11-4.9c-0.8-3.4-6.7-26.5-6.7-26.5c0.7,6.1,1.3,24.9,1.3,24.9
		s4.5,2.8,0.4,0.9c-4.1-1.9-9.1-3.9-17.2-11.8c-8.1-7.9-14.6-28.3-15.3-31.3l-0.9-0.4l2.1-1.7c0,0,24.4,7.3,29.1,8.2
		c1.6,0.3,5.5,1.8,10.5,3.9c-0.6,6.5-0.2,12.5,1.3,17.1c2,6.2,5.9,10.2,11,11.4c1.7,0.4,3.4,0.5,5.2,0.5c0.4,6,0.7,11.5,0.7,11.5
		S473.2,236.4,467.2,235.4z M481.5,237.6c-0.1-2-1-7-1.9-12.1c1.6-0.3,3.2-0.8,4.8-1.5c0.9,6.8,1.9,14.8,1.9,14.8
		C483.4,238.6,481.5,237.6,481.5,237.6z M542.8,225.9c-4.5,0-11,5.4-11,5.4c7.3,4.6,13.6,13.4,13.6,13.4c-2.6-1.8-7.6-2.8-14.3-3.6
		c-6.7-0.8-24.4-2.4-24.4-2.4c-1-2.4-5.7-16.9-5.7-16.9l-2.1-0.9c0.9,1.7,4.9,19,4.9,19c-6.7-0.8-13.8-1.3-13.8-1.3
		c-0.5-1.9-2-9.7-3.2-15.6c3.1-1.8,6.1-4.2,8.8-7.4c0.3-0.3,0.6-0.7,0.9-1.1c10.9,5.7,24.5,12.3,24.5,12.3s-9.6-7.2-20.4-13.1
		c-0.8-0.4-1.7-0.9-2.6-1.4c0.5-0.8,1-1.6,1.5-2.4c4.1,2,7.3,3.6,7.3,3.6c9.6-6.4,24.5-6.2,24.5-6.2c-10.7,2.8-22,8.6-22,8.6
		c6.8,3.9,20.3,13.7,20.3,13.7C537,223.6,542.8,225.9,542.8,225.9z M542.8,182.1c3.4,10.8,0.7,15.2-4.5,16.7
		c-1.5,0.4-4.5-0.2-8.1-1.3c-8.7-2.7-20.9-8.6-24.9-11.1c-3.1-2-5.3-5.5-6.9-8.4c0,0-0.1-0.1-0.1-0.1c-0.9-1.6-1.5-2.9-2-3.7
		c0.5,1.1,0.9,2.3,1.3,3.4c0,0.1,0.1,0.2,0.1,0.4c3.5,11,1.5,21.7-3.1,29.6c-0.5,0.8-0.9,1.5-1.4,2.2c-0.5,0.7-1,1.4-1.6,2.1
		c-1.8,2.2-3.9,4.1-6,5.5c-0.7,0.5-1.4,0.9-2.1,1.2c-1.6,0.8-3.3,1.4-5,1.7c-0.7,0.1-1.4,0.2-2,0.2c-1.2,0-2.4,0-3.6-0.3
		c-6.4-1.5-9.2-10.3-8.4-21.4c0.1-0.9,0.2-1.9,0.3-2.8c0.2-1.3,0.4-2.7,0.6-4.1c0.5-2.5,1.1-5,1.9-7.5c0.4-1.2,0.8-2.5,1.2-3.7
		c1.1-3,2.5-6.1,4.1-9c0.3-0.5,0.6-1,0.8-1.5c1.4-2.3,2.9-4.6,4.5-6.8c0.6-0.7,1.2-1.5,1.8-2.2c-1.4,0.4-2.7,0.8-3.9,1.1
		c-3.9,1.2-7,2.3-9.7,3.4c-4.1,1.7-7.2,3.5-10.7,5.6c-1.9,1.2-3.9,2.5-6.3,4c-0.1,0.1-0.2,0.1-0.3,0.2c-1.3,0.8-2.6,1.6-4.1,2.6
		c-1.4,0.3-2.6,0.5-3.9,0.6c-2,0.2-3.9,0.1-5.6-0.2c-1.9-0.3-3.7-0.9-5.2-1.7c-9.7-4.7-13.2-16.4-13.1-18.4
		c0.1-2.9,6.7-14.2,19-19.8c7.3-3.4,19.3,0.7,27.9,4.6c1.2,0.5,2.2,1,3.2,1.5c0.7,0.4,1.4,0.7,2.1,1c1.8,0.9,3.1,1.7,4,2.2
		c0.6,0.3,0.9,0.5,0.9,0.5s-0.2-0.2-0.6-0.6c-0.6-0.6-1.5-1.5-2.6-2.7c-0.7-0.8-1.6-1.7-2.5-2.7c-0.8-0.8-1.6-1.7-2.4-2.7
		c-7.3-8.2-17.2-20.3-19.2-27.3c-3.1-11.2,7.4-20.1,12.4-21.8c5.5-1.8,29.1,4.8,33,20.6c0.6,2.4,0.8,5.1,0.3,7.9
		c-0.9,5.9-1.8,10.9-2.6,15c-0.2,1.3-0.5,2.5-0.7,3.6c-0.3,1.3-0.5,2.4-0.8,3.5c-1.5,6.2-2.5,9.2-3.1,9.4c-0.1,0-0.1,0-0.2,0
		c-0.9-1.3-1.8-3.7-3-6.6c-0.4-1-0.8-2-1.3-3.1c-0.3-0.7-0.6-1.5-1-2.3c-1-2.2-2.1-4.5-3.3-6.6c-0.2-0.3-0.4-0.7-0.6-1
		c-0.6-1-1.3-2-2.1-2.9c-1.9-2.4-4.1-4.4-6.8-5.4c-2-0.8,0.8,3.7,4,8.9c0.6,1,1.3,2.1,1.9,3.1c0.4,0.7,0.8,1.4,1.2,2.1
		c0.7,1.2,1.3,2.4,1.8,3.4c0.4,0.8,0.7,1.5,0.9,2.2c0.1,0.1,0.1,0.3,0.2,0.4c0.4,1.1,0.6,2.1,0.8,2.9c0.6,2.7,0.3,4.3-1.4,5.1
		c-0.3-0.1-0.6-0.1-0.6,0.2c-0.9,0.2-2,0.3-3.5,0.3c-10.1-0.4,3.4,4.2,8.3,6.4c2.7,1.2,4.4,4.9,5.8,9.5c0.7,2.3,1.3,4.8,1.8,7.3
		c0.1,0.6,0.3,1.3,0.4,1.9c0.2,1,0.4,2,0.7,3c1.4,6.1,3,4,3.2-2.3c0-0.5,0-1,0-1.5c0-2-0.2-4.4-0.5-7c-0.2-1.5-0.5-3.1-0.8-4.8
		c-1.2-5.8,11.4,0.6,16.4,5c0.4,0.3,0.7,0.6,0.9,0.9c3.1,3.2,5.7,1.4,3.6-1.7c-0.7-1.1-2-2.3-4-3.6c-2.4-1.5-4.6-2.7-6.6-3.9
		c-3.6-2.6-6.5-4.8-5.8-5.6c0.2-0.2,0.6-0.5,1.1-0.9c1-0.7,2.3-1.6,3.7-2.4c0.2-0.1,0.4-0.3,0.6-0.4c1.5-1,2.9-2,3.5-2.7
		c4.4-2.8,10.4-6.2,18.5-10c0.5-0.2,1-0.5,1.5-0.7c0.4-0.2,0.8-0.4,1.3-0.6c0,0.2,0.1,0.5,0.1,0.7c-0.2,0.2-0.3,0.4-0.4,0.7
		c-0.2,0.6-0.1,1.3,0.4,1.8c0.6,0.6,1.4,0.7,2.1,0.3c0.1-0.1,0.3-0.1,0.4-0.3c0.7-0.7,0.7-1.8,0-2.5c-0.2-0.2-0.5-0.4-0.9-0.5
		c0-0.4-0.1-0.7-0.1-1c0.5-0.2,1-0.5,1.5-0.7c0.1,0.3,0.2,0.6,0.3,0.8c-0.4,0.7-0.3,1.7,0.3,2.3c0.8,0.8,2,0.8,2.8,0
		c0.3-0.2,0.4-0.5,0.5-0.8c0.2-0.7,0.1-1.4-0.5-2c-0.3-0.3-0.7-0.5-1.1-0.6l0-0.2l0.1-0.6c0.9-0.4,1.8-0.8,2.7-1.1
		c0.1,0.1,0.1,0.3,0.2,0.4c0,0,0,0,0,0c-0.6,0.6-0.7,1.4-0.3,2.1c0.1,0.2,0.2,0.3,0.3,0.4c0.2,0.2,0.5,0.4,0.8,0.4
		c0.6,0.2,1.2,0.1,1.7-0.4c0.7-0.7,0.7-1.8,0-2.5c-0.2-0.3-0.6-0.4-0.9-0.5c0-0.2-0.1-0.5-0.2-0.7c0.5-0.2,0.9-0.4,1.4-0.6
		c0.3-0.1,0.5-0.2,0.8-0.3c0,0.1,0.1,0.2,0.1,0.3c-0.6,0.6-0.6,1.5,0,2.1c0.6,0.6,1.5,0.6,2.1,0c0.6-0.6,0.6-1.5,0-2.1
		c-0.3-0.3-0.7-0.5-1.2-0.4c0-0.1-0.1-0.2-0.1-0.3c2.5-1.4,2.2-2.5-0.9-1.9c-0.1,0-0.2,0.1-0.4,0.1c-0.1-0.2-0.3-0.5-0.3-0.8
		c0.3-0.5,0.3-1.1,0-1.6c-0.1-0.1-0.1-0.2-0.2-0.3c-0.6-0.6-1.6-0.6-2.2,0c-0.3,0.2-0.4,0.6-0.4,0.9c-0.1,0.5,0,1,0.4,1.4
		c0.3,0.3,0.7,0.5,1.1,0.5c0.1,0.2,0.1,0.3,0.2,0.5c-0.8,0.3-1.8,0.6-3,1.1l0-0.8c0.3-0.7,0.2-1.4-0.3-2c-0.1-0.1-0.2-0.1-0.3-0.2
		c-0.7-0.5-1.6-0.4-2.2,0.2c-0.1,0.1-0.2,0.2-0.2,0.3c-0.4,0.7-0.4,1.6,0.2,2.2c0.3,0.3,0.7,0.5,1.1,0.5l0.1,0.5
		c-0.8,0.3-1.6,0.7-2.5,1l-0.6-0.8c0.3-0.7,0.2-1.6-0.4-2.2c-0.3-0.3-0.6-0.5-1-0.6c-0.6-0.1-1.2,0-1.7,0.4c0,0-0.1,0.1-0.1,0.1
		c-0.8,0.8-0.8,2,0,2.8c0.5,0.6,1.3,0.7,2.1,0.5l0.3,0.4c-0.9,0.4-1.8,0.8-2.8,1.3l-0.5-0.7c0.3-0.7,0.2-1.4-0.3-2
		c-0.7-0.7-1.8-0.7-2.5,0c-0.7,0.7-0.7,1.8,0,2.5c0.4,0.4,1,0.6,1.6,0.5l0.4,0.4c-6.6,3.1-15.2,7.5-25.4,13.3c0,0-0.1,0-0.1,0.1
		c-1.1,0.6-2.2,1.3-3.3,1.9c-6.8,3.9,5.2-7.6,4.4-10c-0.6-1.9-6.6,6.2-10.6,9.5c-0.3,0.1-0.5,0-0.4-0.5c0.4-1.6,3.3-6.6,6.7-11.5
		c0.9-1.3,1.8-2.5,2.7-3.7c1-1.3,2-2.5,3-3.6c0.6-0.6,1.1-1.2,1.7-1.8c0.3-0.3,0.7-0.7,1-0.9c0.4-0.4,1.5-1.2,3.1-2.2
		c8.4-5.4,30.8-17.1,38.3-5.9c0.4,0.6,0.8,1.3,1.1,2.1c0.1,0.2,0.2,0.5,0.2,0.7c0.2,0.7,0.2,1.6,0.1,2.5c-0.3,4-2.5,9.8-5.7,15.5
		c-0.5,0.8-0.9,1.6-1.4,2.4c-0.9,1.4-1.8,2.8-2.7,4.1c-0.6,0.8-1.1,1.5-1.7,2.3c-3.1,3.9-6.5,7.1-9.6,8.4c-1.9,0.8-8.9,0.5-13.8,0.2
		c-2.1-0.1-3.8-0.3-4.6-0.4c-0.4,0-0.6-0.1-0.6-0.1s0.3,0.1,0.7,0.2c1.2,0.4,3.9,1.2,7.1,2.1c3.5,1.1,7.7,2.4,11.1,3.6
		c0.5,0.2,1,0.4,1.5,0.5c2.9,1,5.5,2.2,7.6,3.9C538.1,171.4,540.7,175.4,542.8,182.1z M532.4,161.4c-0.3-0.1-0.6-0.3-0.9-0.4
		c2.4-1.8,4.8-4.2,7.1-6.9c1.4,1.5,2.4,2.6,2.4,2.6S537.3,158.6,532.4,161.4z M544,154.5c-0.6-0.7-1.8-1.8-3.3-3.1
		c0.9-1.3,1.8-2.6,2.7-3.9c2.9,2.8,5.2,5,5.2,5C546.1,154.1,544,154.5,544,154.5z M545,144.7c2.3-4,4.1-8.1,5.3-11.9
		c4.7,3.4,12.4,9.3,12.4,9.3c-5.7,3.6-11.5,7.7-11.5,7.7C550.3,149.1,547.9,147,545,144.7z"/>
	<path class="st2" d="M187.6,161.4c-0.2-9.2-1.9-23.3-9.5-33.3c-5.1-6.8-24.1-24.7-57.5-31.8c-33.4-7.1-45.5-9.7-53.8-17.7
		c0,0-2.8,45,18.6,65.3c0.7,0.7,1.4,1.3,2.1,1.9c-9.1,0.4-19,1.9-29.2,5.2c-28,9-45.1,50.8-45.1,50.8c11.1-0.8,22.8,1.4,49.2,7.8
		c-0.3,0.4-0.5,0.9-0.7,1.3c-0.8,2.1-0.8,4.3,0,6.2c-1.8,4,0.3,6.5,1.3,7.5c1.5,1.4,3.5,1.9,5.6,1.5c2.2,1.2,5,1.3,7.6,0
		c1.3-0.7,2.4-1.6,3.2-2.8c0.8-0.1,1.6-0.4,2.4-0.7c1.5-0.7,2.8-1.8,3.7-3.1c0.2-0.2,0.3-0.5,0.4-0.8c0.5-0.1,1.1-0.3,1.6-0.6
		c-0.3,2.5-0.2,5.1,0.6,7.5c1.1,3.5,3.4,6.3,6.6,7.9c2.8,1.4,5,1.4,6.7,1c0.1,0.1,0.2,0.2,0.3,0.3c2.5,2.8,6.7,7.5,12.9,7.4
		c0.8,0,1.7,0,2.7,0.1c4,0.3,11.1,0.8,15.4-6.7c1,0.9,2.1,1.7,3.2,2.3c0.3,0.4,0.7,0.9,0.9,1.3c2.6,3.6,5.9,8.1,10.6,9.2
		c1.2,0.3,2.4,0.4,3.7,0.4c2.7,0,5.5-0.6,8.1-1.6c3.3-1.3,7.7-4.1,10.9-9.7c2.9-1.1,6-3.2,8.1-8.8c2.8-7.4,4.8-15.9-4.6-25.4
		c3.6-0.4,6.8-1.9,9.6-4.3c8.7-7.6,15.2-21.4,10.6-30.5C192.4,165.8,190.3,163.4,187.6,161.4z M140,190.5c-0.4,2.8-3.3,5-5.4,4.9
		c-2.1,0-0.8-3.2-3.9-4c-0.3-0.1-0.6-0.1-0.9-0.2c-0.7-0.1-1.4-0.2-2.2-0.2c-2.3-0.1-5,0.3-8,0.9c-0.8,0.2-1.7,0.4-2.6,0.6
		c-3.6,0.9-7.6,2.1-11.9,3.6c-1.2,0.4-2.5,0.9-3.8,1.4c-0.4,0.2-0.9,0.3-1.3,0.5c-3.3,1.4-6.7,3.3-10,5.4c-2.9,1.8-5.7,3.8-8.2,5.7
		c-1.8,1.4-3.6,2.7-5.1,3.9c-4.4,3.6-7.4,6.2-7.4,6.2c-1.8,1.7-3.7,1.8-0.9-1.6c1.1-1.3,3.2-3.1,5.9-5.2c1.6-1.3,3.4-2.6,5.2-3.9
		c1.5-1.1,3-2.2,4.5-3.2c0.8-0.6,1.6-1.1,2.3-1.6c0.8-0.5,1.5-1.1,2.2-1.6c0.7-0.5,1.4-0.9,2.2-1.4c7-4.2,17.7-8.1,20-8.8
		c2.6-0.8,5.2-1.6,7.7-2.2c0.6-0.2,1.3-0.3,1.9-0.5c5.1-1.2,9.8-2.1,13-2.6C139.6,185.6,140.4,187.9,140,190.5z M84.8,213.1
		c-1.1,0.5-2.4,0.3-2.8-0.5c-0.4-0.8,0.2-1.9,1.3-2.5c1.1-0.5,2.4-0.3,2.8,0.5C86.5,211.4,85.9,212.5,84.8,213.1z M79.3,217.4
		c-1,0.5-2.1,0.3-2.4-0.3s0.3-1.6,1.3-2c1-0.5,2.1-0.3,2.4,0.3C80.9,216.1,80.3,217,79.3,217.4z M71.1,220.7
		c-0.3-0.6,0.2-1.6,1.3-2.1c1-0.5,2.1-0.4,2.4,0.2c0.3,0.6-0.2,1.6-1.3,2.1C72.5,221.5,71.4,221.4,71.1,220.7z M67.7,215.6
		c-0.7-0.3-0.9-1.3-0.5-2.4c0.4-1,1.3-1.6,2-1.4c0.7,0.3,0.9,1.3,0.5,2.4C69.3,215.3,68.4,215.9,67.7,215.6z M74.7,209.9
		c-0.7,1-1.9,1.4-2.5,1c-0.6-0.5-0.6-1.7,0.2-2.7c0.3-0.4,0.7-0.7,1-0.9c0.5-0.3,1.1-0.3,1.5-0.1c0.2,0.1,0.3,0.3,0.3,0.5
		C75.4,208.3,75.3,209.2,74.7,209.9z M77.7,205.8c-0.5-0.6-0.2-1.8,0.8-2.6c0.9-0.8,2.1-1,2.7-0.4c0.2,0.3,0.3,0.7,0.2,1.1
		c0,0.1-0.1,0.3-0.1,0.4c-0.2,0.4-0.4,0.7-0.8,1C79.4,206.3,78.2,206.4,77.7,205.8z M72.1,179C72.1,179,72.1,179,72.1,179
		c0,0.6-0.1,1.4-0.3,2.6c-10.4,2.5-21.5,4.8-21.5,4.8S60.8,182,72.1,179z M97.3,228.5c-4.7-2.3-4.7-7.9-3.1-13.6
		c0.4-1.2,0.8-2.5,1.3-3.7c0.7-1.6,1.4-3.2,2.2-4.6c0.1-0.2,0.2-0.3,0.3-0.4c4.1-6.8,12.3-7.3,14.9-7.4c0.3,0,0.6-0.1,1-0.1
		c1.3-0.3,2.9-1.2,4.5-2.2c1.6-1,3.4-2.2,5-3.2c0.7-0.4,1.3-0.7,1.8-0.8c1.6-0.4,2.7,0.2,3.1,0.7c0.2,0.2,0.3,0.4,0.3,0.4
		c-1.7,2-7.3,9.7-6.1,8.2c1.2-1.5,7.9-6.4,9.2-6.3c0.6,0-0.7,2.4-2.2,4.8c-1.2,2-2.5,4-3.1,4.8c1.7-2.4,9.4-9.3,10.6-8.7
		c0.4,0.2,0.9,1.6,1.6,3.3c0.3,0.9,0.6,1.9,1,2.8c1.2,3.4,2.4,6.8,3.2,5.6c0.9-1.4-0.3-4.9-1-7.4c-0.4-1.3-0.7-2.4-0.4-2.5
		c0.3-0.1,1.2,0.3,2.2,0.9c1,0.6,2.2,1.5,3,2c-0.7-0.6-1.5-1.6-2.3-2.7c-0.9-1.1-1.7-2.3-2.2-3.3c-0.4-0.7-0.6-1.4-0.5-1.8
		c0.1-0.6,1.2-1.5,2.5-2.4c2.3-1.6,5.2-3.2,4.8-3c-0.4,0.1-2.3,0.8-4,1.1c0,0-0.1,0-0.1,0c-0.5,0.1-1,0.1-1.4,0.2
		c-0.7,0-1.3-0.1-1.6-0.4c0,0-0.1-0.1-0.1-0.1c-0.5-0.8,2.7-3.5,4.7-5.5c1.4-1.4,2.4-2.4,1.2-2.2c-0.2,0-0.4,0.1-0.6,0.1
		c-2.9,0.9-7.8,4.4-8.9,3.6c-1.2-0.8-1.7-10-2.5-7.9c-0.9,2.2-1.6,4.8-2.2,3.2c-0.5-1.5-4.6-6.8-3.7-5.2c0.5,0.9,0.7,3.9,0.6,6.1
		c0,0.6,0,1-0.1,1.5c-0.1,0.7-0.1,1.2-0.2,1c-0.2-0.4-4.9-1-7.9-1.3c-0.1,0-0.1,0-0.2,0c-1.6-0.2-2.7-0.2-2.2-0.1
		c0.4,0.1,1.1,0.4,1.9,0.8c0.1,0,0.2,0.1,0.3,0.1c2,1,4.5,2.5,4.2,3c-0.4,0.7-3.2,1-5.4,1.7c0,0-0.1,0-0.1,0
		c-0.4,0.1-0.9,0.2-1.4,0.1c-2-0.1-4.3-1-6.5-0.9c-2.8,0.1-8.6,5.3-16.2,6.5c-1.3,0.2-2.6,0.3-3.8,0.2c-0.8,0-1.6-0.1-2.4-0.2
		c-1.7-0.3-3.3-0.7-4.7-1.3c-0.8-0.3-1.6-0.7-2.3-1.1c-3.9-2.1-6.2-5.2-5.7-7.5c0.3-1.4,0.5-2.6,0.6-3.6c0.1-1,0.1-1.8,0-2.6
		c-0.1-1-0.4-1.8-0.7-2.5c-1-2.1-2.3-3.3-0.6-8.4c2.3-6.8,6.5-5.1,8.5-6.7c0.1-0.1,0.2-0.2,0.3-0.3c0.3-0.4,0.5-0.6,0.7-0.9
		c1-1.6-0.9-1.2,0.1-2.9c1.2-2.1,3.3-3.2,5.5-3.7c0.2,0,0.4-0.1,0.6-0.1c0.8-0.1,1.7-0.2,2.5-0.2c4,0,7.9,1.2,8.7,1.6c0,0,0,0,0.1,0
		c1.3,0.5,3.8,1.4,6.9,7.9c0.1,0.2,0.2,0.3,0.2,0.5c0.5,1,0.9,2.1,1.4,3.3c0.3,0.9,0.7,1.7,1.1,2.4c0.4,0.8,0.9,1.5,1.4,2.2
		c0.6,0.8,1.3,1.6,2,2.3c2.8,2.9,6,4.5,7.6,5.3c-1.1-1-2.7-3-4.3-5.8c-0.4-0.7-0.9-1.5-1.3-2.4c-0.8-1.5-1.5-3.1-2.3-4.8
		c-0.1-0.3-0.3-0.6-0.4-0.9c-0.5-1.2-1-2.5-1.4-3.8c-0.3-0.8-0.4-1.5-0.6-2.2c0-0.1,0-0.2,0-0.3c-0.4-2.4-0.1-4.2,0.4-5.7
		c0.5-1.3,1.2-2.3,1.9-3.1c0.9-1.1,1.8-1.7,1.8-2c0.2-3.3,0.5-6.8,2.5-9.5c0.4-0.6,0.9-1.1,1.5-1.6c0.5-0.4,1-0.8,1.6-1.1
		c0.2-0.1,0.3-0.2,0.5-0.2c5.5-2.5,11.1,1,15.4,4.6c2.2,1.9,5.8-1.4,10.7,1.7c5.7,3.6,5.3,8.7,2.7,13.9c-0.4,0.8-0.8,1.5-1.2,2.3
		c-0.5,0.8-1,1.6-1.5,2.4c-0.8,1.2-1.7,2.4-2.6,3.6c-0.5,0.7-1,1.3-1.5,2c-0.1,0.2-0.2,0.3-0.4,0.5c-0.6,0.8-1.3,1.6-1.8,2.4
		c-0.5,0.7-1,1.3-1.4,1.9c-0.3,0.5-0.6,1-0.9,1.5c-0.2,0.4-0.4,0.8-0.6,1.2c-2.5,5.6-0.8,9.8-0.6,10.4c0,0.1,0,0.1,0,0.1
		s0.1-0.2,0.2-0.5c0.4-1.3,1.7-4.8,4.3-9.4c0.4-0.6,0.8-1.3,1.2-2c0.7-1.1,1.4-2.2,2.3-3.4c0.1-0.1,0.1-0.2,0.2-0.3
		c0.2-0.2,0.3-0.4,0.5-0.7c0.4-0.6,0.9-1.2,1.4-1.8c0.8-1,1.6-2,2.6-3c0.2-0.2,0.4-0.5,0.6-0.7c0.6-0.7,1.3-1.3,1.9-1.8
		c0.9-0.8,1.8-1.5,2.6-2c7.2-4.8,12.7-1.7,14.1-0.9c1.7,0.9,2.4,5.5,4.3,6.1c0.7,0.3,2.1,0.7,3.7,1.5c2.3,1.2,5,3,6.9,5.7
		c0.4,0.5,0.7,1.1,1,1.6c2.9,5.8-1.8,16.9-9.2,23.4c-7.5,6.5-17.3,0.5-20.8-0.9c-1.3-0.5-3.1-0.7-4.9-0.6c-1.1,0-2.3,0.1-3.3,0.3
		c-0.4,0.1-0.8,0.1-1.2,0.2c-1.4,0.3-2.3,0.6-2.4,0.9c-0.1,0.3,0.2,0.8,0.6,1.2c0.7,0.8,2,1.7,3.4,2.4c2.2,1.1,5.2-1.7,15.8,6.9
		c10.6,8.6,8.6,15.1,6.1,21.8c-2.5,6.7-6.1,4.7-7.1,6.9c-4.2,8.6-12.8,10.1-16.8,9.2c-4-0.9-8.3-9.4-9.6-9.7
		c-1.3-0.3-6.6-3.2-3.5-11.9c1.8-5,1.6-11.8,1.2-16.5c-0.1-1-0.2-2-0.3-2.8c-0.2-1.8-0.4-3-0.4-3s-3.2,1.4-4.3,5.8
		c-0.2,0.8-0.3,1.7-0.4,2.7c0,0.8,0,1.5,0.1,2.4c0.9,8.6-0.1,14.4-3.2,21.6c-3.1,7.3-8.6,5-13.9,5.1c-5.3,0.1-8.9-7.3-11.3-8.1
		c0,0-0.1,0-0.1,0c-0.2-0.1-0.5-0.1-0.6-0.1C100.6,228.2,100.3,230.1,97.3,228.5z M159.5,120.6c3.4,2.6,7.8,5.4,13.7,14.4
		c3.4,5.2,5.4,14,6.5,21c-0.8-1.7-1.9-3.7-4.1-5c-4.7-2.6-9.7-3.1-14.6-1.5c0.1-1.4,0.1-2.7-0.2-4c-0.5-3-2-5.6-4.3-7.8
		c1.3-7.1,3.3-16.3,3.3-16.3S156,118,159.5,120.6z M135.9,108.2c0,0,4.1,1.7,9.6,3.9c5.5,2.2,9.4,6.7,9.4,6.7c0,2,0.2,11.1,0.3,17.8
		c-0.3-0.3-0.7-0.5-1-0.8c-0.2-0.1-0.3-0.2-0.5-0.3c-4.6-2.9-8.6-2.4-10.9-2.1c0,0-0.1,0-0.1,0c-2.1-1.7-5.6-4.3-10-5.5
		C133.5,121,135.9,108.2,135.9,108.2z M78.4,124.1c10.8-0.3,22.8-3.2,22.8-3.2c-5.5-5-16.2-16.7-16.2-16.7
		c-8.4,3.8-13.4,0.4-13.4,0.4c4.3,1,11.7-2.5,11.7-2.5c-5.9-5.7-9.9-15-9.9-15c2.1,2.2,6.6,4.1,12.8,6.3c6.2,2.2,22.6,7.4,22.6,7.4
		c0.5,2.4,1.6,16.5,1.6,16.5l1.8,1.3c-0.5-1.7-0.5-18.3-0.5-18.3c6.2,2.2,12.8,4.1,12.8,4.1c0,3-0.7,21.3-0.7,21.3l2.1,1.5
		c0-2.4,2.3-22.4,2.3-22.4c2.7,0.9,4.3,2.2,4.3,2.2c-0.5,3.1-1.2,14.9-1.4,20.6c-3.1-0.5-6.4-0.3-9.9,1.6c-0.6,0.3-1.2,0.7-1.7,1.1
		c-0.7-0.5-1.3-1.1-1.8-1.5c-9.2-7.8-25.1-20.2-25.1-20.2s7.5,8.5,16.4,16.1c2.5,2.1,5.4,4.5,8.6,7.1c-0.6,0.6-1.1,1.2-1.6,1.8
		c-6.2-4.7-12.9-10-12.9-10C92.5,127.4,78.4,124.1,78.4,124.1z M17.7,198.1c10-21.2,24.9-37.7,45.8-43.6c6.5-1.8,13-3.3,19.4-4.1
		c-0.7,0.8-1.4,1.6-1.9,2.6c-0.5,0.8-0.8,1.6-0.9,2.5c-2.7,0.8-6.8,2.7-9,9.3c-2,5.7-1.1,8.9,0.2,11.5c-2.9,0.6-4.9,1.1-4.9,1.1
		c-7.9-8-22-11.1-22-11.1c9.6,4.9,19.2,12.7,19.2,12.7c-7.2,2.1-21.9,8-21.9,8c-5.9-7.1-11.8-6.2-11.8-6.2c4.3,1,9.4,7.3,9.4,7.3
		c-7.8,2.5-15.5,9.2-15.5,9.2c2.8-1.1,7.8-0.8,14.3-0.1c6.5,0.7,23.6,3.2,23.6,3.2c1.4-2,8.6-14.2,8.6-14.2l1.4-0.2
		c0.1,0.3,0.1,0.6,0.2,0.9c-2.1,3.7-7.7,15.3-7.7,15.3c1.8,0.2,3.7,0.4,5.4,0.7c-0.7,0.5-1.3,1.1-1.8,1.8c-0.3,0.3-0.5,0.7-0.7,1.1
		C52.5,202.4,36.5,198.7,17.7,198.1z"/>
</g>
<path class="st3" d="M494.3,72.3c-2.2,0-53.9,0.7-110.2,41.3C361,49.5,314.6,12.9,312.6,11.4l-2.5-1.9l-2.5,2
	c-2,1.6-48.6,39.1-71.4,102.2C180,73,128.3,72.3,126,72.3l-6.8,0l3.3,5.9c0.4,0.8,41.7,77.2,53.9,181l0.4,3.5h266.7l0.4-3.5
	c12.2-103.7,53.5-180.2,53.9-181l3.2-5.9L494.3,72.3z"/>
<path class="st4" d="M442,261H178.3l-0.2-2C165.8,155,124.4,78.2,124,77.4l-1.9-3.4l3.9,0c0.6,0,14.2,0.1,35.1,5.6
	c18.7,4.9,46.8,15.3,76,36.7c22.4-64,71.1-103.2,71.6-103.6l1.4-1.1l1.4,1.1c2,1.6,49,38.7,71.6,103.6c29.1-21.4,57.3-31.8,76-36.7
	c20.9-5.5,34.5-5.6,35.1-5.6l3.9,0l-1.9,3.4c-0.4,0.8-41.9,77.6-54.1,181.6L442,261z M182.4,256.4h255.5
	c11.1-91.2,44.3-161.3,52.5-177.6c-13.4,1-59.4,7.2-107,43.1l-2.6,1.9l-1-3c-19.9-60-61.3-96.4-69.7-103.3
	c-8.2,7-50.4,45-69.7,103.3l-1,3l-2.6-1.9c-29.4-22.2-58-32.8-76.8-37.8c-14-3.7-24.8-4.9-30.2-5.3
	C138.2,95.1,171.3,165.2,182.4,256.4z"/>
<g>
	<path class="st0" d="M356.6,144.1l0.3,0.7c2.1-1.1,4.3-3.7,4.3-6c0-0.8-0.3-1.5-0.8-2.1c-0.5-0.5-1.2-0.8-2-0.8h0
		c-1.8,0-3,1.1-3,2.8c0,1.3,0.7,2.3,2,2.7l0.1,0l0,0.1C357.9,142.4,357.3,143.2,356.6,144.1"/>
	<path class="st0" d="M385.5,162.4c0-2-0.9-3.9-2.5-5.5c-0.9-1-2.1-2-3.5-2.8l0,0c-1.5-0.8-2.9-1.4-4.1-2c-1.9-0.8-3.4-1.5-4.2-2.5
		c-0.8-1-1.2-2-1.2-3.2c0.1-2.8,2.4-4.7,5.8-4.7h0c3,0,5.1,1.6,5.9,4.3l2.1,0.2c0.1-1,0.4-4,0.5-5c0,0,0,0-0.1,0
		c0-0.3,0.1-0.7,0.1-0.8c-3.9-0.7-5.9-0.9-8.1-0.9h0c-9,0-14.8,4-14.8,10.3c0,0.1,0,0.2,0,0.2c0,0,0,0.1,0,0.1c0,3.1,1.3,5,3.9,6.9
		c1.1,0.8,2.5,1.6,4.1,2.5l0.3,0.2c3.8,1.9,6.5,3.4,6.6,6.8c-0.1,3.2-3,5.7-6.7,5.7h0c-3.7,0-6.1-1.7-7.1-5l-2.2-0.2
		c0,0.1,0,0.3,0,0.6l0,0c0,1.3,0.1,5.2,0.2,6.2c2.9,0.6,4.8,0.8,8.1,0.8h0c5.2,0,9.6-1.1,12.5-3.3c2.8-2.1,4.3-5,4.3-8.5
		c0,0,0-0.1,0-0.1C385.5,162.5,385.5,162.4,385.5,162.4z"/>
	<g>
		<path class="st0" d="M320.7,174.5l0-1.6c-1.5-0.6-2.3-1.9-2.5-3.8c0-8.1,0-22.1,0-22.1c0-1.4,0.1-2.4,0.4-3.1
			c0.3-0.7,0.8-1.3,1.5-1.8c0.1-0.1,0.3-0.2,0.4-0.2l0-1.5l-8,0v0l-1.3,0l0,1.4c1.7,0.7,2.6,2.4,2.5,5.2l0,12.1h0l0,0.5l-12-13.8
			c0,0-3.6-5.3-10.2-5.4c-2.7,0-3.6,0-3.6,0v0c-0.9,0-1.3,0-1.3,0l0,1.6c1.7,0.7,2.6,2.3,2.6,4.8l0,20.5c0,1.5-0.1,2.6-0.3,3.2
			c-0.2,0.7-0.7,1.3-1.5,1.8c-0.2,0.2-0.5,0.3-0.8,0.4l0,1.3l8,0v0l1.3,0l0-1.4c-0.4-0.2-0.7-0.4-1-0.6c-0.9-0.7-1.3-2.3-1.3-4.8
			l0-17.1c1.3,1.5,10.8,12.5,15.4,17.7c4.3,4.9,5.5,6.4,7.9,6.7c0,0,0.1,0.1,0.1,0.1c2.1,0,2.4,0,2.5,0v0
			C320.3,174.5,320.7,174.5,320.7,174.5z"/>
		<path class="st0" d="M319.1,174.5L319.1,174.5C319.1,174.5,319.1,174.5,319.1,174.5z"/>
	</g>
	<path class="st0" d="M346.5,158.4L346.5,158.4h-0.9l0,1.7c0.9,0.5,1.4,1.4,1.4,2.6l0,2.9c0,2.3-0.6,3.9-1.8,4.7
		c-1.1,0.7-2.4,1.1-4,1.1c-1.8-0.1-3.4-0.5-4.5-1.5c-1.3-1-2.1-2.5-2.6-4.4c-0.4-1.9-0.7-5.6-0.7-9.2c0-7.1,2.7-14.4,9.3-14.6
		c4.7,0.2,6.1,2.5,7.5,5.4l2,0l0,0l0.9,0l0.6-5c0,0-3.4-2.5-10.7-2.6c-0.1,0-0.2,0-0.3,0c-0.2,0-0.4,0-0.6,0
		c-6.4,0-11.3,1.7-14.6,5.2c-3.3,3.5-4.9,7.7-4.9,12.6c0,4.6,1.5,8.5,4.6,12c3.1,3.4,7.2,5.1,12.2,5.2c0.2,0,0.4,0,0.5,0
		c0.1,0,0.3,0,0.4,0c1.9,0,4.2-0.3,6.9-0.9c3.6-0.8,5.2-1.2,6.6-1.2c0.2,0,0.4,0,0.7,0v0c0.3,0,0.5,0,0.9,0l0-8.7
		c0-1.6,0.2-2.7,0.6-3.2c0.2-0.3,0.5-0.5,0.9-0.6l0-1.5L346.5,158.4z"/>
	<path class="st0" d="M281.9,142.5c0.2-0.3,0.6-0.5,1-0.6l0-1.6l-12.4,0l0,1.6c0.5,0.1,0.9,0.3,1.1,0.6c0.5,0.6,0.8,1.7,0.8,3.3
		l0,23c0,1.7-0.3,2.8-0.9,3.3c-0.2,0.2-0.6,0.5-1.4,0.5c-1.9,0-2.7-0.7-3.5-2l-11.9-18.8c1-1,1.9-2.1,2.8-3.1c3.7-4,6.5-7.2,9.1-7.2
		h0l0.5,0l0-1.5h-0.6c-0.6,0-1.6,0-2.7,0c0,0,0,0,0,0c-3.6,0-6.6,3.1-6.9,3.4c-1.3,1.4-6.1,6.2-10.4,10.1l-0.1-0.1
		c0-1.2,0-2.2,0-3.2c0-5.5-0.1-8.2,1.1-8.4l0.9-0.2l0-1.6l-0.3,0c-1.9,0-3.7,0.1-5.5,0c-1.9,0-3.7,0-5.5-0.1l-0.3,0l0,1.3l0,0.3
		l0.3,0c0.5,0,0.8,0.2,0.9,0.5c0.3,1,0.5,5.2,0.4,11.3c0,12.3-0.3,17.5-0.5,18.2c-0.1,0.3-0.4,0.5-1,0.6l-0.2,0v1.6l0.3,0
		c3.4-0.1,7.2,0,11,0l0.3,0l0-1.6l-1.2-0.2c-0.3-0.1-0.4-0.5-0.4-1.3v-0.5c0-0.1,0-0.2,0-0.4c0-0.6-0.2-2.1-0.2-4.7l0-7.1l1.6-1.3
		c4.1,5.2,7.4,10.4,10,15.4l-0.8,0.2v1.6h0.3c2.7,0,25.2,0,25.2,0l0-1.4c-0.4-0.1-0.8-0.4-1-0.6c-0.5-0.6-0.8-1.7-0.8-3.2l0-23
		C281.1,144.1,281.4,143.1,281.9,142.5z"/>
</g>
<g>
	<path class="st0" d="M430.4,211.6c0-8.1,0-21.8,0-21.8c0-1.4,0.1-2.4,0.4-3.2c0.3-0.7,0.8-1.3,1.5-1.8c0.2-0.1,0.3-0.2,0.5-0.2
		l0-1.5l-8.2,0l0,1.4c1.7,0.7,2.6,2.4,2.6,5.2l0,12.2h0l0,1.9l-13.6-15.4c0,0-3.7-5.4-10.5-5.4c-2.8,0-3.7,0-3.7,0l0,1.6
		c1.8,0.7,2.6,2.3,2.6,4.8l0,20.6c0,1.5-0.1,2.6-0.3,3.3c-0.2,0.7-0.7,1.3-1.5,1.8c-0.2,0.2-0.5,0.3-0.8,0.4l0,1.4l8.2,0l0-1.4
		c-0.4-0.2-0.7-0.4-1-0.6c-0.9-0.7-1.4-2.3-1.4-4.8l0-17.4c0,0,10.9,12.2,15.9,17.9c4.4,5,5.6,6.2,8.1,6.5c0,0,0.1,0.1,0.1,0.1
		c2.8,0,3.7,0,3.7,0l0-1.6C431.5,214.9,430.6,213.6,430.4,211.6"/>
	<path class="st0" d="M343.6,215.3c-0.5-0.2-0.8-0.4-1-0.6c-0.5-0.6-0.8-1.7-0.8-3.2l0-23.1c0-1.5,0.3-2.6,0.8-3.2
		c0.2-0.3,0.6-0.5,1.1-0.7l0-1.6l-12.7,0l0,1.6c0.5,0.1,0.9,0.3,1.1,0.6c0.6,0.6,0.8,1.7,0.8,3.3l0,23.1c0,1.7-0.3,2.8-0.9,3.3
		c-0.2,0.2-0.6,0.4-1.1,0.5l0,1.4l12.7,0L343.6,215.3z"/>
	<path class="st0" d="M361.8,215.3c-0.5-0.2-0.8-0.4-1-0.6c-0.5-0.6-0.8-1.7-0.8-3.2l0-23.1c0-1.5,0.3-2.6,0.8-3.2
		c0.2-0.3,0.6-0.5,1.1-0.7l0-1.6l-12.7,0l0,1.6c0.5,0.1,0.9,0.3,1.1,0.6c0.6,0.6,0.8,1.7,0.8,3.3l0,23.1c0,1.7-0.3,2.8-0.9,3.3
		c-0.2,0.2-0.6,0.4-1.1,0.5l0,1.4l12.7,0L361.8,215.3z"/>
	<path class="st0" d="M257.4,214.5c-0.8-0.5-1.8-2.1-2.8-4.7l-11.3-27.7l-2.9,0l-10.8,27c-1.1,2.8-2.4,5-3.9,5.9l0,1.5l8,0l0-1.6
		c-0.3-0.1-0.5-0.2-0.7-0.3c-0.5-0.3-0.8-0.9-0.8-1.7c0-0.5,0.3-2.7,0.8-3.9l0.5-1.3c2.2-0.6,6.4-1.4,10.7-0.1l1.5,3.6
		c0,0,1.5,5.2,8.9,5.2c3.9,0,4.3,0,4.3,0l0-1.5C258.4,215,257.9,214.8,257.4,214.5 M234.6,204.6l4-10.2l4.2,10.2
		C239.6,203.9,236.6,204.2,234.6,204.6"/>
	<path class="st0" d="M328.1,214.6c-0.8-0.5-1.8-2.1-2.8-4.7L314,182.3l-2.9,0l-10.8,27c-1.1,2.8-2.4,5-3.9,5.9l0,1.5l8,0l0-1.6
		c-0.3-0.1-0.5-0.2-0.7-0.3c-0.5-0.3-0.8-0.9-0.8-1.7c0-0.5,0.3-2.7,0.8-3.9l0.5-1.3c2.2-0.6,6.4-1.4,10.7-0.1l1.5,3.6
		c0,0,1.5,5.2,8.9,5.2c3.9,0,4.3,0,4.3,0l0-1.5C329.1,215.1,328.6,214.9,328.1,214.6 M305.3,204.8l4-10.2l4.2,10.2
		C310.2,204.1,307.3,204.4,305.3,204.8"/>
	<path class="st0" d="M396.1,214.8c-0.8-0.5-1.8-2.1-2.8-4.7L382,182.4l-2.9,0l-10.8,27c-1.1,2.8-2.4,5-3.9,5.9l0,1.5l8,0l0-1.6
		c-0.3-0.1-0.5-0.2-0.7-0.3c-0.5-0.3-0.8-0.9-0.8-1.7c0-0.5,0.3-2.7,0.8-3.9l0.5-1.3c2.2-0.6,6.4-1.4,10.7-0.1l1.5,3.6
		c0,0,1.5,5.2,8.9,5.2c3.9,0,4.3,0,4.3,0l0-1.5C397.1,215.2,396.6,215.1,396.1,214.8 M373.3,204.9l4-10.2l4.2,10.2
		C378.2,204.2,375.3,204.5,373.3,204.9"/>
	<path class="st0" d="M295.9,181.8l0,1.6c0.3,0.1,0.5,0.2,0.7,0.3c0.5,0.3,0.8,0.9,0.8,1.7c0,0.5-0.3,2.7-0.8,3.9l-5.7,14.6
		l-9.1-22.1l-3.3,0l-8.7,22.1c0,0-4.1-13.6-5.1-16.9c-1-3.3-4.6-5.2-9-5.2c-2.2,0-4.2,0-4.2,0l0,1.5c0.5,0.1,0.9,0.3,1.4,0.6
		c0.8,0.5,1.8,2.1,2.8,4.7l9.4,27.7l2.9,0l9-22.5l9.2,22.5l2.9,0l10.8-27c1.1-2.8,2.4-5,3.9-5.9l0-1.5L295.9,181.8z"/>
	<path class="st0" d="M222.5,184.6c0.2-0.3,0.6-0.5,1.1-0.7l0-1.6l-12.7,0l0,1.6c0.5,0.1,0.9,0.3,1.1,0.6c0.6,0.6,0.8,1.7,0.8,3.3
		l0,8.3l-13,0l0-8.3c0-1.5,0.3-2.6,0.8-3.2c0.2-0.3,0.6-0.5,1.1-0.7l0-1.6l-12.7,0l0,1.6c0.5,0.1,0.9,0.3,1.1,0.6
		c0.6,0.6,0.8,1.7,0.8,3.3l0,23.1c0,1.7-0.3,2.8-0.9,3.3c-0.2,0.2-0.6,0.4-1.1,0.5l0,1.4l12.7,0l0-1.4c-0.5-0.2-0.8-0.4-1-0.6
		c-0.5-0.6-0.8-1.7-0.8-3.2l0-11.9l13,0l0,11.9c0,1.7-0.3,2.8-0.9,3.3c-0.2,0.2-0.6,0.4-1.1,0.5l0,1.4l12.7,0l0-1.4
		c-0.5-0.2-0.8-0.4-1-0.6c-0.5-0.6-0.8-1.7-0.8-3.2l0-23.1C221.8,186.3,222,185.2,222.5,184.6z"/>
</g>
<g>
	<g>
		<path class="st4" d="M262.5,237.6v4h-1.1v-8.9h1.1v4h5.8v-4h1.1v8.9h-1.1v-4H262.5z"/>
		<path class="st4" d="M273.6,232.7v8.9h-1.1v-8.9H273.6z"/>
		<path class="st4" d="M276.5,232.7h1.1v8h5.7v0.9h-6.8V232.7z"/>
		<path class="st4" d="M290.1,241.8c-3.1,0-5.1-2.1-5.1-4.6c0-2.5,2.1-4.6,5.2-4.6s5.1,2.1,5.1,4.6
			C295.3,239.6,293.2,241.8,290.1,241.8z M290.1,233.5c-2.3,0-3.9,1.6-3.9,3.7c0,2,1.7,3.7,4,3.7c2.3,0,3.9-1.6,3.9-3.7
			S292.4,233.5,290.1,233.5z"/>
		<path class="st4" d="M297.9,241.6h-0.5v-1.3h1.3v1.1c0,1-0.5,1.5-1.6,1.7l-0.2-0.4C297.7,242.5,298,242.1,297.9,241.6z"/>
		<path class="st4" d="M306.7,237.6v4h-1.1v-8.9h1.1v4h5.8v-4h1.1v8.9h-1.1v-4H306.7z"/>
		<path class="st4" d="M325.9,241.6h-1.2l-1.2-2.4H318l-1.2,2.4h-1.2l4.6-9h1.1L325.9,241.6z M320.8,233.8l-2.3,4.5h4.6L320.8,233.8
			z"/>
		<path class="st4" d="M334,232.7h0.9l2.8,7.4l2.9-7.4h1.2l-3.6,9h-1l-2.8-7.2l-2.8,7.2h-1l-3.6-9h1.2l2.9,7.4L334,232.7z"/>
		<path class="st4" d="M353.2,241.6H352l-1.2-2.4h-5.5l-1.2,2.4H343l4.6-9h1.1L353.2,241.6z M348.1,233.8l-2.3,4.5h4.6L348.1,233.8z
			"/>
		<path class="st4" d="M356.5,232.7v8.9h-1.1v-8.9H356.5z"/>
		<path class="st4" d="M360.7,232.7v8.9h-1.1v-8.9H360.7z"/>
	</g>
</g>
<g>
	<path class="st4" d="M282.2,112.3h-5.9v2.9h5.3v0.9h-5.3v3h6v0.9h-7.1v-8.5h7V112.3z"/>
	<path class="st4" d="M289.3,115.2c2.2,0.4,3.2,1.1,3.2,2.4c0,1.5-1.4,2.4-3.3,2.4c-1.5,0-2.8-0.5-4-1.4l0.7-0.7
		c1,0.8,2,1.2,3.3,1.2c1.3,0,2.2-0.6,2.2-1.5c0-0.8-0.5-1.3-2.5-1.6c-2.2-0.4-3.2-1.1-3.2-2.5c0-1.4,1.3-2.3,3.2-2.3
		c1.4,0,2.4,0.4,3.4,1l-0.6,0.7c-0.9-0.6-1.8-0.9-2.8-0.9c-1.3,0-2.1,0.6-2.1,1.4C286.7,114.3,287.2,114.8,289.3,115.2z"/>
	<path class="st4" d="M299.1,119.9H298v-7.6h-3.2v-0.9h7.6v0.9h-3.2V119.9z"/>
	<path class="st4" d="M308.3,115.7v-1.3h1.3v1.3H308.3z"/>
	<path class="st4" d="M317.5,111.3h0.8v8.6h-1.1v-7.6l-1.8,0.5l-0.3-0.8L317.5,111.3z"/>
	<path class="st4" d="M323.7,120.1c-1.3,0-2.2-0.5-3-1l0.6-0.7c0.8,0.6,1.5,0.9,2.4,0.9c1.7,0,2.9-1.6,2.9-3.7
		c-0.5,0.7-1.4,1.4-2.7,1.4c-2,0-3.4-1.1-3.4-2.7c0-1.6,1.4-2.9,3.5-2.9c1.1,0,1.9,0.3,2.5,0.9c0.8,0.7,1.2,1.6,1.2,3.3
		C327.8,118.2,326.1,120.1,323.7,120.1z M324,112.1c-1.5,0-2.3,0.9-2.3,2c0,1.1,1,1.9,2.4,1.9c1.5,0,2.4-1,2.4-1.9
		C326.4,113,325.4,112.1,324,112.1z"/>
	<path class="st4" d="M330.5,111.4h5.6v0.9h-4.6l-0.2,2.7c0.6-0.2,1.1-0.4,1.9-0.4c1.9,0,3.3,1,3.3,2.6c0,1.7-1.4,2.8-3.5,2.8
		c-1.4,0-2.6-0.6-3.5-1.4l0.7-0.7c0.8,0.7,1.8,1.2,2.7,1.2c1.4,0,2.3-0.8,2.3-1.9c0-1.1-1-1.8-2.4-1.8c-0.8,0-1.5,0.2-2,0.5
		l-0.7-0.4L330.5,111.4z"/>
	<path class="st4" d="M342,120.1c-2.5,0-4.1-2-4.1-4.4c0-2.4,1.6-4.4,4.1-4.4c2.5,0,4.1,2,4.1,4.4C346.1,118,344.5,120.1,342,120.1z
		 M342,112.1c-1.8,0-2.9,1.6-2.9,3.5s1.2,3.5,3,3.5c1.8,0,2.9-1.6,2.9-3.5C344.9,113.8,343.8,112.1,342,112.1z"/>
</g>
<g>
	<path class="st0" d="M435.9,184.6c0.1-0.2,0.2-0.4,0.4-0.6c0.2-0.2,0.4-0.3,0.6-0.4c0.2-0.1,0.5-0.1,0.8-0.1c0.3,0,0.5,0,0.8,0.1
		c0.2,0.1,0.4,0.2,0.6,0.4c0.2,0.2,0.3,0.4,0.4,0.6c0.1,0.2,0.2,0.5,0.2,0.8c0,0.3-0.1,0.5-0.2,0.8c-0.1,0.2-0.2,0.4-0.4,0.6
		c-0.2,0.2-0.4,0.3-0.6,0.4c-0.2,0.1-0.5,0.1-0.8,0.1c-0.3,0-0.5,0-0.8-0.1c-0.2-0.1-0.4-0.2-0.6-0.4c-0.2-0.2-0.3-0.4-0.4-0.6
		c-0.1-0.2-0.2-0.5-0.2-0.8C435.8,185.1,435.8,184.9,435.9,184.6z M436.3,186.1c0.1,0.2,0.2,0.4,0.3,0.5c0.1,0.1,0.3,0.3,0.5,0.4
		c0.2,0.1,0.4,0.1,0.6,0.1c0.2,0,0.4,0,0.6-0.1c0.2-0.1,0.4-0.2,0.5-0.4c0.1-0.1,0.3-0.3,0.3-0.5c0.1-0.2,0.1-0.4,0.1-0.7
		c0-0.2,0-0.4-0.1-0.7c-0.1-0.2-0.2-0.4-0.3-0.5c-0.1-0.1-0.3-0.3-0.5-0.3c-0.2-0.1-0.4-0.1-0.6-0.1c-0.2,0-0.4,0-0.6,0.1
		c-0.2,0.1-0.4,0.2-0.5,0.3c-0.1,0.1-0.3,0.3-0.3,0.5c-0.1,0.2-0.1,0.4-0.1,0.7C436.1,185.6,436.2,185.9,436.3,186.1z M437.9,184.3
		c0.3,0,0.5,0.1,0.6,0.2c0.1,0.1,0.2,0.3,0.2,0.5c0,0.2-0.1,0.4-0.2,0.5c-0.1,0.1-0.3,0.2-0.4,0.2l0.7,1h-0.4l-0.6-1h-0.4v1H437
		v-2.3H437.9z M437.7,185.3c0.1,0,0.2,0,0.2,0c0.1,0,0.1,0,0.2,0c0.1,0,0.1-0.1,0.1-0.1c0-0.1,0-0.1,0-0.2c0-0.1,0-0.1,0-0.2
		c0,0-0.1-0.1-0.1-0.1c0,0-0.1,0-0.2,0c-0.1,0-0.1,0-0.2,0h-0.5v0.7H437.7z"/>
</g>
</svg>
